<mxfile host="app.diagrams.net" modified="2021-01-20T08:39:26.487Z" agent="5.0 (Macintosh; Intel Mac OS X 10_15_7) AppleWebKit/537.36 (KHTML, like Gecko) Chrome/87.0.4280.141 Safari/537.36" etag="E-1jQHoO4EgOt5DOUICb" version="14.2.4" type="github">
  <diagram id="MiRuKA0v3jFonh-gzX_U" name="Page-1">
    <mxGraphModel dx="532" dy="251" grid="1" gridSize="10" guides="1" tooltips="1" connect="1" arrows="1" fold="1" page="1" pageScale="1" pageWidth="827" pageHeight="1169" math="0" shadow="0">
      <root>
        <mxCell id="0" />
        <mxCell id="1" parent="0" />
        <mxCell id="dRI7kauGEd1azHOrCS9Q-1" value="" style="rounded=0;whiteSpace=wrap;html=1;fillColor=#fff2cc;strokeColor=#d6b656;" vertex="1" parent="1">
          <mxGeometry x="240" y="200" width="120" height="60" as="geometry" />
        </mxCell>
        <mxCell id="dRI7kauGEd1azHOrCS9Q-2" value="" style="shape=image;verticalLabelPosition=bottom;labelBackgroundColor=#ffffff;verticalAlign=top;aspect=fixed;imageAspect=0;image=data:image/png,iVBORw0KGgoAAAANSUhEUgAAACAAAAAgCAIAAAD8GO2jAAAKYUlEQVR4nAXBR28jWWIA4FevXuVczEkSFZoKLWlGnWZ62jtYr2F497C2L4Yv/k2+Gr74YsC+GbCBNXywsZN7erq1zZa6lajAWGSRLLISK1f5+7Dyb2lyRdeU+uCht7lXIwTMCZ16fe36U3+tvLG90Tw9PeVFYTzVZ3Oj0agc7O8Gnts+fWstzChOtvf2jOmqe9drtsqeF3qu1720QQJIAeSKzHTloe3avjeOj7efbhVac0uDYSzyiqsFCpRLXAnFtMTkQz+dDVbFyjqMaXcBHSu15pgs1IqFMokLIVoovEcneZaCd9174AEAgYiEmlBDzBASMb9eaCZ2VBEKXEb7U4+NmdQIW6UNwks5nFZYpZqrM4C7PevxZCFyCcfI8ESUuZrIVAILV4U6DRTtzkocyhx7MMJQCN1JoHVmySpEa+UyE6Dh5bW4saGyBIkL64Xio2pdZoUgjIM0hnFCEpgkCBwj0pCmIFMt1C3d5Ck5DTHPS8aaViqtP9w+9LtTz00hRkiigCAMVmGBl9Hlp9e7lUazyShSeHjUojimUq3Wa1UQRo67+u9vfgjdaV7mWZTSgmzOJqPuXbVS+fxoF2SJ5boMj3+6fFAL8lZr8+3rN7TABSuXl0QMyxhKlBUOxamWK5SPttY2Kmulcl1Sikq+REAcx1LXtr+ODh1zHKfW3k613b7eaR1cXumupZXz1Hg8wEgUxkEC3MH45sWTL3Eq822LpFChlnNcZ+fR+sybw/3D+vZerrLGrm/n1LKolHMEy0KaBRRLcczeo9rL5wfVIi/Q2fMne42qLPJYcz3HMqHvjRhqlUWGObNpFNiWVi4pWZCQNDFfTjE88RNvMtdQpV6AZErxeAxjkucgKWVASgCCIEEMTq2MrXrZmC2++eN3za3HqkS/+vLzQlHmOHx/t0iz9ENP4/DMNMP26/Nms37L4iCL57qu5tTri5tFukAQJ1IMi+IsBrgfIRDSFKkAQIAshFlM0lxelUv5nCpJtrnMH3/21asX5Yo6Gt1NJl1FFF6enPzlV6/++Z/+/bb9mlqvFgSZl4TZfDEdzJIsCeUYuSGOEO/5fppEi6VOJ7wgsxQuIgxmSZamKSeLvMTt7jar9ebR8SOcgDSZIphqoz6DbxQFdS239g9/F2q9ca93z1EQYZnveQRNVYq5rtOHMxuYVowlWbiaIExLsqsgOUvANQZ6aTp1getAz4cmn0uqdSSJHpYZ/e5FGDhHh58X8mt+ykJG3T8+/s1f/blhm7SQSkUSYzBWEflCQZZyyHH8fn9SF+gwBGQcY8EK+SaOGASSKDbjZIqhhKQ9WUGFEh/EK5oVRLVKswrHqZa5cla+yvB8Pjt8drTZqjh+tAp8kkH1Rs12A8dyEEoyc+mNxiuWihscS+C0ZwRh4uJJYOhdnF9q+rD95m291kjj2I29fKnCywVEyQAXxIJsPFyN5kNd13/805+arW2a5rWR5XsQhOHkoe85K0QALArgXXdJIEVUEZ/gwF8tluMEQ0Zf87HF+7NPb368Un6Xt0SbYLOVtwQ0xSLA4FgKsK5+r30Yp0nGiez65vqoOy7IHNqodO8n4dyACCA8BSQp3feNyfjStuHeZgN67rU2VhGV+LEfpUVy888OReiQw+uRWlEpikBUQnPB/fjTDz+/1UZLEmf2dw94pujLUuashnfDw2bt+c7OfbP8P+9P0WK62FhrkCT+7Tevz95e1RTuYC23rkpksdysbELApVmiMpJh6jiRprbnzecUBX65ePsff/ij6zsvX/6KJKBv65Viw8kw+lFTwTA6gyf7rd8cb0fsEq5WkT61t7YPJanY+bS8/zikMmyjsQ4RDUhCytN+ZADML5XkvCyzkFpN3fb3H/7lH//z6qdeXSgqNKqonN67t2c6g2Pz8ZCGKZmFnY+/SFT69LMGJGlOn1lxgj8/ecHi4Ksnj169eNporEnFSt+eX+gfzrV32qpHqbhcEOtrGywpxxa6bbt8WpZxxV86DI5WluM5XrFYKZdruXyhudUMQn9uTPIFBdluTJP0h/fnrw4fP94uNIpiXhYIhmQZZWnB06t3SexSfC4RaZzlS9W1hRvu7+2fHLYdNwztyF6uBr3JYDCL4v7W5tPnr/6i1+lIFKJIaj4ZxRSAN52RH0SO7S6ns2dHu6lvL+YTTR+3bzojJ7xdxmRlp9j6jCo3ApKm8zLiICvD1uMqSblp5uhj482bM4pWZovwp9MLubK5ffg8o6X76eL0pvPu/BoZmu3krGa52e/f79dEf6FPHBPEwWQZYlne9SGvNtd3n8k0Yc3GgBPYvGBONUrA/cRyPNQbOjFEf/3ya8uJH4ZXb06/Xa+uXfXu/u2//hA4TqRmEPjANea+Y4SpH1JoGARa6DswLNfZ471KPZ/zzBVDyixfSRHfvry56A4SginVagszmRnpdLkSFdZ2h5Ic0JTxv//3r3e90+uHy950fjvxQoJEgARzfamwek4STD/QTXdquU4SPNvcwgkkSZJtOednl4oidx+uzto/fnr/89//7d8U8+XZEmBMDEgiCLGbjnZ4lEOItW2n/eHip5/f+xEK4nhpRahUZmcDb6zPa5VykmExhga6UWtU7Ah2Ol2A4RDgp6dtiqItcx5GiOIKne4UbkghYs+uDVaFQ12vNaL5IgvCqFypt8+746mbAoakcGO2hIWienC0E8XJfGnHGCI4cTS3ll4ymFl2kBIUG0ept4rLpfUowt+8vVjaSVcz37Q7pMjMHfDQT8eTuNuzvv3+40QPHA8GMZFB+ukXXyCWWTorpI0WqgSPPz+eT+dv37WVIru1+1jMy8tVpI0mgeU2apv6SGMYNY6R4yQ3ne5kYoZhspy5MY7JMoNhiRfgrf1WuVweaQYiyYVj7ct8oZy7nd+i+dCdD9wkQARCgigdPD5Qy6IbrEazxWCsd85ufv+79TCMf/j+tZpTjw6fAoAtlosojFg5J6hIlrjb6weeEba2t9/88stYN549P2F4uje8R3Ta2BIRgADPoO/5x1++2N5ZQ1QyMyZLx1pYFsfz1UZxOB6wZO76+lxVFuVKXhSUJMn6w6Eo0wTCcQJyEikozMXlxeVFD5FYnIY7rS0Mw0ajYYpFEMSAFphf/frrk5OTQX/w3Xffda6vcQhUWUIIEjTRGwyq9TqBSGO2WM6WFx+u86pSq5am09FsOsGy9OBgN6cq2ljLUgAx/OH+XlXkLEvH43EUpwgTQZzG/cHQWlpn5+8kheBENB5Gaj6PZUmGgcl0NtEnNEXNx7Mvnh7P9MHH9uWTLw5lie9c9ybavJhXzYVZzJezBGUAm2qmMTUzgGEZaj1aRxACiGPnZ+dJ5O/tbT4+bPYGN2kShq5tmCZBUaIiGHNje3tn3B9CkO49atorc9i7a+220jBCOP3p/GaxtDa3NjhW8L3It5PpZNHa3VXlsSiQKAEA0oGp+4JCFzY5n7boEjTN1ciYBVEiCSrikquHj09PDrgyft5rKyq9+2TNPZ9M/PvKXollBaaCwYegM71kGE5QOGgnl92LgLDsZE6H9P8DjDS/9h0gYz0AAAAASUVORK5CYII=;" vertex="1" parent="1">
          <mxGeometry x="250" y="206" width="32" height="32" as="geometry" />
        </mxCell>
        <mxCell id="dRI7kauGEd1azHOrCS9Q-3" value="" style="shape=image;verticalLabelPosition=bottom;labelBackgroundColor=#ffffff;verticalAlign=top;aspect=fixed;imageAspect=0;image=data:image/png,iVBORw0KGgoAAAANSUhEUgAAACAAAAAgCAIAAAD8GO2jAAAJa0lEQVR4nEXOWY+k11nA8ec557z7UntVr9Mz07N5C2MHgbFACUIRUpKLXAaJz8Y3iCIiWSESQkqI42CMYzwzzkwv03t1Vdde9a5ne7jwBf8v8Pvj+Ze/anVS63HHC21VceEjExbo6vL6+NUbUlobo8kSAAESIiCzhFpbAO44LmMMyAJjBEgEBP8fAnLORdTpx9t9qVaOG0kRccfjjs/QCaZrIE1WgzWIiMAsARERWCBEIAJjSGuNRJZzwbmDAEQWEAGAiIAhcC40cHASwRAJATSAUSrnzAPSDACAiAEAWgIEQAIgIGsEZ6PJpFQqK0pZ161G69GDRwwZICMEIsLvGEBBJrMyy7LclLmtpfDEd6P5fAqaWUNEGlAQIFgDRGAZERqCJEkiEGkTCiVT3wdmgVlkCIYZ0FJzAYpxIc5OTteG7e1sh0Fd53NukSqpaunou9BZWlcRWGCOYdJCjUgISOBaQi6EJTacVBfXnuhan60BiBi3EmfZ+mpCjdB9/GBfvHj11h1d/eSTp9f/+e/+apl6vjTm6PJ6mm80QdpPF+ss147f7cdpbMFoq8FaBEnEdncH7Ygvl1W5Hi3CNTNAgEaqpSzPZ8FgsNduhMIa6/Py6uL1yevL4uiMV5UI47NVPiqK2lL/wWC8zFYVRn3V6d7zwzZyF6wEWJJ2pqXs7Yea1SYjX7pMK2LArIl8HghmlJKyEqRrMvb4mq/7Hw2LzmJy5zJXbnsaHKQStyK3ofyKW89dQOLoJhpfG1vbwGrhlvywwRVk8xnMlVVlmVcrF5RhlY36ntvKskxoAxcXy9Oz0SZD4lbxvgecMZe4EBRUEFW6qBSgcoGstTNj0II1TAOBC6LOwrKQN+M7VLlWsjQqdHilDDOr3t6eNloUtf38q2ulHEOBAm2IOUZYbiQjNHRzZQxZQ4ZBSQCOg1HiboraSN/za3LNeKpnszLbrJjdSEWGECpSoAyWeVkTgahrKUr2sx88i6K29AJlWbHSNXc//9NXX3zxxzjyyZA2YCxIVXe6/s7uw69ffrueBR9/3ENwfv3pG+b0uK0dmwGitjYSoiazyGpd1mStAOA7jaijJmG5TAePBvtPq6xM9g7CqDx78x/vPuuAtbJGqWyZQX8bm95NL1g1e+rpQTSf1o6tl3m5n/gdP+GMoyMi35+sssXlWBlJQMKAbXcw8smlvB07g+3tMpvGO42tfmO/0/rwyTNDppRKaqnyev8BFnX2yfNHjmAHeymV+V+81/vfo7t+Jz4Y9BABADVZ4wf+bGOBHEeILi9YageHfcYIO94CJn6zyNW5np/spXxn0LbIK2m0rDkW+/fDxTrf6VCn7UqDzEBnKz27+ePDwwfvP9rRsrZgFNIsr94O54xsHAZiX8jT4fizF8aC6S3UA6PD4qxabVYnV6EgxpExHljU4EQxauWslwQaWNv1WdJrkhP4gjth3GgPBgIkGZtLxfh6L/ISJpPQFwykxyujF0nI39uLtvvO+M0scZ1GJLgwwMkSESMUOmmTrK1wPTdifgKbOXdcv6Gr595iwDNtq9vVOi+quqpmk6Eu5lHcY0hCa7p/+OyDv/++onXa7zqp12L35+fDxha+5ySsPCWMlfIdz2vEIrcwaOs4DlxXz7QFgcLVD1yzmY6yM6cqC2QscKjXIJkGSFzmlZhPF37lqZXs73rCG3M/HByk85NTXW3aKa+qW5eHVxfrjCf9wffmE5SWuX5lazSggYxRkrTc77rdw8gqBCPRylyKMmRLqQmsqEyVZ+r6dj69nZIe+d3Qa/qn19Pzmzwv1LxQo8VoPMs++svHl8P18EYHjbC/G91NIKs0R2mLupZV6Kh+alVls0ozzmrmVoQ1OpWqRdzeP7m5Y8nD6bK1mHUuPvtSwyS3Yl0n6Hir1RrQe/+Z/8n3BoGXYLFs7rI0TU+P1CLP8tWE1tO6LKq62uRVvpGVqtLEBSJrLQIRgnj46J3Tk6HK5dFw/mZcjYfsvce7T7bv79z//r/+7jetxu5PP/lhaM7ivnszRhfqyGXno8Wrs7k0djIewnreL6rFct3Ii7ws6noZhQ2Va81Ba2m1Fn7EbDk/+erz0dXN8i5nulrd+XVjqx971XL09KO/a/Yb+cz5r9P8N789ZpPTn/7oYJrTB+/+1fV49PLP/3OvO6C7QBcbW87anc7pnf70D2e6FKN5FYWotBKo8d0Pn//jz/9pNZ9Mb29vry6v356Ov3n1L1/+qV7Pltr7t9MXg4f+y+NRtqr2D4J40Nhcsn/4wY9++ekvtKXtewf56VGjs3d+Yyav7744vnx1dBXyyLf1+08bRVWKfD5hoMrNVNWFcLHZjzTuKhe//Ozro+HkD8fjp4fdv42eTC8vtkX6uNs9e3n5u9+e393Wi9XNTuL2I+8uDP/7ZPLtcj2f58jpyYPdupTr27UArrQW0+V8OZ1dvHyxKctKWaVqqXSn3X3+/IOpOLkYTQaH919fV7/6/W1Atzx2VvP1t68vL99e90I39r1vhr+O8+pkNoNW+uRg0GqnSSsd346O7oZAmiyJygkb23ulsTwIPQeZ8l1LUpadOHvc62/F/jv32l+/Pt7bjRyGrd2dr47vhtzllq7Wii2rFl99HId+J+xv9e9t7SRJHAR+CM7wz2+TIOw1muL337zopPE+2CRpuNznzLEkpQbB/O1241mr+c79QSDMBw/3mWPAt+2m8+igt8lKbRR3RchA1TKvq+nZ2Wg49HwvaaRAVHOqwaI1+M8//rAoayllLVUYBLtbg0G37TBExgqrHh60GNmr21kSBAcP46vh4sW3K1lV600+W6+QsbbnOVejstvUYaCkMmAsgjbGKt0IozQORVnpWltr0XFc5jhX49Hr83OjgXGbJDgY/PV4nC3XXKV06ITMqm7qqChvpkmr3Vqu12q1AaA4iLx2pyxzSxo5A0AgiMLIC3zBhNMIfNS6yOp8WTFUsWAidC0K1OX5xejzr19PJtVHT7a6vUdnZ2tlI0ewMAgDP+g2GrKVl1EEUQyCe3HEHQacMSYYcmQMkeOP/+aQIzJAMjaOY8f3K1mVUi43FQMTBbwoVS2h04uCGI5PR1yk7STc6bdbacrBCsDAC7jvGWNIG4tQKkmW8DuAC/z5D98BQHAcg1QrVVU2LyQx8n0eej5pIg21sZmtwiQMfddFjzEoiw0pna83nKCZxNs7vWYzicIYmbCWANBaAmQonP8DBsfz3t0ov7gAAAAASUVORK5CYII=;" vertex="1" parent="1">
          <mxGeometry x="258" y="212" width="32" height="32" as="geometry" />
        </mxCell>
        <mxCell id="dRI7kauGEd1azHOrCS9Q-4" value="" style="shape=image;verticalLabelPosition=bottom;labelBackgroundColor=#ffffff;verticalAlign=top;aspect=fixed;imageAspect=0;image=data:image/png,iVBORw0KGgoAAAANSUhEUgAAACAAAAAgCAIAAAD8GO2jAAAGbklEQVR4nE1WzY4mRxGMyMzq/mZnZ3Zs1j+7NgduyFyAExJPgN+KAzeeiCO8AZKRQLaxLC8Y22u8OzPfT1VlBof+dnAdWi11KTszMiIj+cff/yEiAMw5SaxhrYUkSRFOOGUewXAYC1ImawKoKkmZCbmEMaeRrbVlXa2FkSRpFiRpVImku4GoKgBjjDmntUBEc67N3a2BhqjpYwySmUmyyCzFurj7uq7rupC2pVhVYWbhIRNJNzoVYVVy94iAUazqx6+++vL7b79bPGT+/gcfvP/+e1XaUmFb5W7njJ2EFbboksKpCAosZlaZBS2o6e4tXEAJvR//9tdP/vPiX/evbzvzF7/+1W/W30YsHtZ2rYUJDHeQBEmYcavAzAJKqrzFFI9zhDXQgVSV5qS7ezRvqDzc3dY4FiaVEbG7eNx2jV5GdwuzMywAQEISJCkklWQAiIhY1iU89sd9P50QTndwaPTHi1+vMPdJf35zff34EZcLuhnK3EgC2PoqCVvsUmbGw7fW2rL4GjsKKlVVH8nJaEvf383D7VWTYWaxbm9NVW605hJUoLYgWw2qzMw5Z+/dCFAyMsxRlbOrJqiIWHcXF5ePr66ujRbAo6U5knU63v4wx8nczA0EIBAAIEBCVc6cc8zZ5zjFdoWliADlLKKAihYwS/E0cPf6UAOET1qy936Xozco1cHh5qATYEkja87U7PM0TofZj0EQUlU14y7W5n7Y76vKzLYnah7ubnOclIOVbjbnzExzB+VybgBJtZ3MMU/9uD8d9sgeJEsqCYC5A+i9A3B3MyPNKmc/MgcrgyW3TcDhPlVGg3DWRFVmjjFmP9Q4MnvNEcAZxg3JnDnntIdDBqrmqZ8OUbMZZQaoVCA3TgIACCEze+/H42GOQ80TlKoRJE1kFWdF4ylTgpmTBtBJp7L6qOFVTaaSxsg+Jcss26ZSoeYY/dD7Iceh5l41KyUxCKgKZZRQmpkkI8LMALjHcb+/25/Wy2ue7mqwNcwc+1ff6XibCTApVWr24zju5+lYs6sKAsDd7jLMLDMfpqOZRYS7n2UvfPX5P+9fvb6+vPzolx8dbr//4tO/q+rrL/7x7vMPd2+9M8EqZR/9eJj9WLOjknD3ti5L+GJbM9/0P1X1Y+m9evnt919+/nTnV61+9sHTnz5/2zAere3w36///dkndXg9jofjfn/c350O97MfkdOhtS3r+qi1tbX1DAVwHh4UaMbwrRP3r37w3L/9ZJe1/8uf/9T7yZed+dp7ffPNt9fvveSja0jIScjM3SIi6AvNAYoW21je8KkqCuFeRggGIgd4OvTD8XTb+2kM1fDee7Xd2utw7BdLkoBkpLlHRLRGNppveYe7b/ZSVQ8EFeHuu4uLWBzoh+Oh933vc3TkMCnYAMCM5m6QIJq5WWstotEX0jb1BQAzc/et1ebOiLb40pbdshpNYk6MbqPHOFllmSPc3N3cSZBmRERERIswD8EEQqJZVJVHNPIsGLK1sKW5eVVVKaeNE/vRekelS/IAQDMzGmmCzHxZd8uymJmEKkDnxkZmbhVsHquzlVdlzmTvY86aE5nInNIgYLZWFckId3eaX6zrsq7ncQ0RIpQSNsPZHHz7h7u7e5EEzbD5X7ifyAiXQMjM6N5a2+0u2rqax7quD0pSCaXNlAGcaVpV7r4si4fLHEYCcRZdsKUdCXNJqiTNz8doRnJLceO6Nn988x4eAcDI7arRZISRoMlolpmVVdIYo1TO/+umqqyqQJIw8k0jz6raaJoUQW9hzUWWgZAVSMAgY5kVLcWeJQlOySsJGEqoIkGQIgqQNlW8cWiex05bmrtLovFB2wAkKkMp4w4qA9pyUdZmscScaTndGviGNjib82YC29wMd2+tZWZmmvGhRkIpux/Wj5rVhl2QrHJOulmK2or8UU5nlMStAgDxMJnHGACqBORGOBrL4+Wo/XGWKhOA2LsTF48o82VZlgj+SENvfmAAJZGMzIRgosZ0D+NmsKgSZr79zrvX7z3/5tPPTqepKhpZuYY/uXryk2cfLpdPLJxG2gaIbUEhSlCVgMhMo83es89YvUogBJGs0tOn7/zu449fvHjx8uXL+/v7ki5361tPrp49e3Zzc9NaI8+ef+YVYCBpgARIim3NG3NU5VZiSedNloTx5ubq5ubnkkoFIcxMKJWkh3UOELadLlPSRlqZAfgfyt3K39zBtu4AAAAASUVORK5CYII=;" vertex="1" parent="1">
          <mxGeometry x="270" y="223" width="32" height="32" as="geometry" />
        </mxCell>
        <mxCell id="dRI7kauGEd1azHOrCS9Q-5" value="Data 1" style="text;html=1;resizable=0;autosize=1;align=center;verticalAlign=middle;points=[];fillColor=none;strokeColor=none;rounded=0;" vertex="1" parent="1">
          <mxGeometry x="310" y="222" width="50" height="20" as="geometry" />
        </mxCell>
        <mxCell id="dRI7kauGEd1azHOrCS9Q-6" value="" style="ellipse;whiteSpace=wrap;html=1;fillColor=#fff2cc;strokeColor=#d6b656;" vertex="1" parent="1">
          <mxGeometry x="290" y="130" width="100" height="50" as="geometry" />
        </mxCell>
        <mxCell id="dRI7kauGEd1azHOrCS9Q-7" value="" style="shape=image;verticalLabelPosition=bottom;labelBackgroundColor=#ffffff;verticalAlign=top;aspect=fixed;imageAspect=0;image=data:image/png,iVBORw0KGgoAAAANSUhEUgAAACAAAAAgCAIAAAD8GO2jAAAJa0lEQVR4nEXOWY+k11nA8ec557z7UntVr9Mz07N5C2MHgbFACUIRUpKLXAaJz8Y3iCIiWSESQkqI42CMYzwzzkwv03t1Vdde9a5ne7jwBf8v8Pvj+Ze/anVS63HHC21VceEjExbo6vL6+NUbUlobo8kSAAESIiCzhFpbAO44LmMMyAJjBEgEBP8fAnLORdTpx9t9qVaOG0kRccfjjs/QCaZrIE1WgzWIiMAsARERWCBEIAJjSGuNRJZzwbmDAEQWEAGAiIAhcC40cHASwRAJATSAUSrnzAPSDACAiAEAWgIEQAIgIGsEZ6PJpFQqK0pZ161G69GDRwwZICMEIsLvGEBBJrMyy7LclLmtpfDEd6P5fAqaWUNEGlAQIFgDRGAZERqCJEkiEGkTCiVT3wdmgVlkCIYZ0FJzAYpxIc5OTteG7e1sh0Fd53NukSqpaunou9BZWlcRWGCOYdJCjUgISOBaQi6EJTacVBfXnuhan60BiBi3EmfZ+mpCjdB9/GBfvHj11h1d/eSTp9f/+e/+apl6vjTm6PJ6mm80QdpPF+ss147f7cdpbMFoq8FaBEnEdncH7Ygvl1W5Hi3CNTNAgEaqpSzPZ8FgsNduhMIa6/Py6uL1yevL4uiMV5UI47NVPiqK2lL/wWC8zFYVRn3V6d7zwzZyF6wEWJJ2pqXs7Yea1SYjX7pMK2LArIl8HghmlJKyEqRrMvb4mq/7Hw2LzmJy5zJXbnsaHKQStyK3ofyKW89dQOLoJhpfG1vbwGrhlvywwRVk8xnMlVVlmVcrF5RhlY36ntvKskxoAxcXy9Oz0SZD4lbxvgecMZe4EBRUEFW6qBSgcoGstTNj0II1TAOBC6LOwrKQN+M7VLlWsjQqdHilDDOr3t6eNloUtf38q2ulHEOBAm2IOUZYbiQjNHRzZQxZQ4ZBSQCOg1HiboraSN/za3LNeKpnszLbrJjdSEWGECpSoAyWeVkTgahrKUr2sx88i6K29AJlWbHSNXc//9NXX3zxxzjyyZA2YCxIVXe6/s7uw69ffrueBR9/3ENwfv3pG+b0uK0dmwGitjYSoiazyGpd1mStAOA7jaijJmG5TAePBvtPq6xM9g7CqDx78x/vPuuAtbJGqWyZQX8bm95NL1g1e+rpQTSf1o6tl3m5n/gdP+GMoyMi35+sssXlWBlJQMKAbXcw8smlvB07g+3tMpvGO42tfmO/0/rwyTNDppRKaqnyev8BFnX2yfNHjmAHeymV+V+81/vfo7t+Jz4Y9BABADVZ4wf+bGOBHEeILi9YageHfcYIO94CJn6zyNW5np/spXxn0LbIK2m0rDkW+/fDxTrf6VCn7UqDzEBnKz27+ePDwwfvP9rRsrZgFNIsr94O54xsHAZiX8jT4fizF8aC6S3UA6PD4qxabVYnV6EgxpExHljU4EQxauWslwQaWNv1WdJrkhP4gjth3GgPBgIkGZtLxfh6L/ISJpPQFwykxyujF0nI39uLtvvO+M0scZ1GJLgwwMkSESMUOmmTrK1wPTdifgKbOXdcv6Gr595iwDNtq9vVOi+quqpmk6Eu5lHcY0hCa7p/+OyDv/++onXa7zqp12L35+fDxha+5ySsPCWMlfIdz2vEIrcwaOs4DlxXz7QFgcLVD1yzmY6yM6cqC2QscKjXIJkGSFzmlZhPF37lqZXs73rCG3M/HByk85NTXW3aKa+qW5eHVxfrjCf9wffmE5SWuX5lazSggYxRkrTc77rdw8gqBCPRylyKMmRLqQmsqEyVZ+r6dj69nZIe+d3Qa/qn19Pzmzwv1LxQo8VoPMs++svHl8P18EYHjbC/G91NIKs0R2mLupZV6Kh+alVls0ozzmrmVoQ1OpWqRdzeP7m5Y8nD6bK1mHUuPvtSwyS3Yl0n6Hir1RrQe/+Z/8n3BoGXYLFs7rI0TU+P1CLP8tWE1tO6LKq62uRVvpGVqtLEBSJrLQIRgnj46J3Tk6HK5dFw/mZcjYfsvce7T7bv79z//r/+7jetxu5PP/lhaM7ivnszRhfqyGXno8Wrs7k0djIewnreL6rFct3Ii7ws6noZhQ2Va81Ba2m1Fn7EbDk/+erz0dXN8i5nulrd+XVjqx971XL09KO/a/Yb+cz5r9P8N789ZpPTn/7oYJrTB+/+1fV49PLP/3OvO6C7QBcbW87anc7pnf70D2e6FKN5FYWotBKo8d0Pn//jz/9pNZ9Mb29vry6v356Ov3n1L1/+qV7Pltr7t9MXg4f+y+NRtqr2D4J40Nhcsn/4wY9++ekvtKXtewf56VGjs3d+Yyav7744vnx1dBXyyLf1+08bRVWKfD5hoMrNVNWFcLHZjzTuKhe//Ozro+HkD8fjp4fdv42eTC8vtkX6uNs9e3n5u9+e393Wi9XNTuL2I+8uDP/7ZPLtcj2f58jpyYPdupTr27UArrQW0+V8OZ1dvHyxKctKWaVqqXSn3X3+/IOpOLkYTQaH919fV7/6/W1Atzx2VvP1t68vL99e90I39r1vhr+O8+pkNoNW+uRg0GqnSSsd346O7oZAmiyJygkb23ulsTwIPQeZ8l1LUpadOHvc62/F/jv32l+/Pt7bjRyGrd2dr47vhtzllq7Wii2rFl99HId+J+xv9e9t7SRJHAR+CM7wz2+TIOw1muL337zopPE+2CRpuNznzLEkpQbB/O1241mr+c79QSDMBw/3mWPAt+2m8+igt8lKbRR3RchA1TKvq+nZ2Wg49HwvaaRAVHOqwaI1+M8//rAoayllLVUYBLtbg0G37TBExgqrHh60GNmr21kSBAcP46vh4sW3K1lV600+W6+QsbbnOVejstvUYaCkMmAsgjbGKt0IozQORVnpWltr0XFc5jhX49Hr83OjgXGbJDgY/PV4nC3XXKV06ITMqm7qqChvpkmr3Vqu12q1AaA4iLx2pyxzSxo5A0AgiMLIC3zBhNMIfNS6yOp8WTFUsWAidC0K1OX5xejzr19PJtVHT7a6vUdnZ2tlI0ewMAgDP+g2GrKVl1EEUQyCe3HEHQacMSYYcmQMkeOP/+aQIzJAMjaOY8f3K1mVUi43FQMTBbwoVS2h04uCGI5PR1yk7STc6bdbacrBCsDAC7jvGWNIG4tQKkmW8DuAC/z5D98BQHAcg1QrVVU2LyQx8n0eej5pIg21sZmtwiQMfddFjzEoiw0pna83nKCZxNs7vWYzicIYmbCWANBaAmQonP8DBsfz3t0ov7gAAAAASUVORK5CYII=;" vertex="1" parent="1">
          <mxGeometry x="302" y="137" width="32" height="32" as="geometry" />
        </mxCell>
        <mxCell id="dRI7kauGEd1azHOrCS9Q-8" value="" style="shape=image;verticalLabelPosition=bottom;labelBackgroundColor=#ffffff;verticalAlign=top;aspect=fixed;imageAspect=0;image=data:image/png,iVBORw0KGgoAAAANSUhEUgAAACAAAAAgCAIAAAD8GO2jAAAGbklEQVR4nE1WzY4mRxGMyMzq/mZnZ3Zs1j+7NgduyFyAExJPgN+KAzeeiCO8AZKRQLaxLC8Y22u8OzPfT1VlBof+dnAdWi11KTszMiIj+cff/yEiAMw5SaxhrYUkSRFOOGUewXAYC1ImawKoKkmZCbmEMaeRrbVlXa2FkSRpFiRpVImku4GoKgBjjDmntUBEc67N3a2BhqjpYwySmUmyyCzFurj7uq7rupC2pVhVYWbhIRNJNzoVYVVy94iAUazqx6+++vL7b79bPGT+/gcfvP/+e1XaUmFb5W7njJ2EFbboksKpCAosZlaZBS2o6e4tXEAJvR//9tdP/vPiX/evbzvzF7/+1W/W30YsHtZ2rYUJDHeQBEmYcavAzAJKqrzFFI9zhDXQgVSV5qS7ezRvqDzc3dY4FiaVEbG7eNx2jV5GdwuzMywAQEISJCkklWQAiIhY1iU89sd9P50QTndwaPTHi1+vMPdJf35zff34EZcLuhnK3EgC2PoqCVvsUmbGw7fW2rL4GjsKKlVVH8nJaEvf383D7VWTYWaxbm9NVW605hJUoLYgWw2qzMw5Z+/dCFAyMsxRlbOrJqiIWHcXF5ePr66ujRbAo6U5knU63v4wx8nczA0EIBAAIEBCVc6cc8zZ5zjFdoWliADlLKKAihYwS/E0cPf6UAOET1qy936Xozco1cHh5qATYEkja87U7PM0TofZj0EQUlU14y7W5n7Y76vKzLYnah7ubnOclIOVbjbnzExzB+VybgBJtZ3MMU/9uD8d9sgeJEsqCYC5A+i9A3B3MyPNKmc/MgcrgyW3TcDhPlVGg3DWRFVmjjFmP9Q4MnvNEcAZxg3JnDnntIdDBqrmqZ8OUbMZZQaoVCA3TgIACCEze+/H42GOQ80TlKoRJE1kFWdF4ylTgpmTBtBJp7L6qOFVTaaSxsg+Jcss26ZSoeYY/dD7Iceh5l41KyUxCKgKZZRQmpkkI8LMALjHcb+/25/Wy2ue7mqwNcwc+1ff6XibCTApVWr24zju5+lYs6sKAsDd7jLMLDMfpqOZRYS7n2UvfPX5P+9fvb6+vPzolx8dbr//4tO/q+rrL/7x7vMPd2+9M8EqZR/9eJj9WLOjknD3ti5L+GJbM9/0P1X1Y+m9evnt919+/nTnV61+9sHTnz5/2zAere3w36///dkndXg9jofjfn/c350O97MfkdOhtS3r+qi1tbX1DAVwHh4UaMbwrRP3r37w3L/9ZJe1/8uf/9T7yZed+dp7ffPNt9fvveSja0jIScjM3SIi6AvNAYoW21je8KkqCuFeRggGIgd4OvTD8XTb+2kM1fDee7Xd2utw7BdLkoBkpLlHRLRGNppveYe7b/ZSVQ8EFeHuu4uLWBzoh+Oh933vc3TkMCnYAMCM5m6QIJq5WWstotEX0jb1BQAzc/et1ebOiLb40pbdshpNYk6MbqPHOFllmSPc3N3cSZBmRERERIswD8EEQqJZVJVHNPIsGLK1sKW5eVVVKaeNE/vRekelS/IAQDMzGmmCzHxZd8uymJmEKkDnxkZmbhVsHquzlVdlzmTvY86aE5nInNIgYLZWFckId3eaX6zrsq7ncQ0RIpQSNsPZHHz7h7u7e5EEzbD5X7ifyAiXQMjM6N5a2+0u2rqax7quD0pSCaXNlAGcaVpV7r4si4fLHEYCcRZdsKUdCXNJqiTNz8doRnJLceO6Nn988x4eAcDI7arRZISRoMlolpmVVdIYo1TO/+umqqyqQJIw8k0jz6raaJoUQW9hzUWWgZAVSMAgY5kVLcWeJQlOySsJGEqoIkGQIgqQNlW8cWiex05bmrtLovFB2wAkKkMp4w4qA9pyUdZmscScaTndGviGNjib82YC29wMd2+tZWZmmvGhRkIpux/Wj5rVhl2QrHJOulmK2or8UU5nlMStAgDxMJnHGACqBORGOBrL4+Wo/XGWKhOA2LsTF48o82VZlgj+SENvfmAAJZGMzIRgosZ0D+NmsKgSZr79zrvX7z3/5tPPTqepKhpZuYY/uXryk2cfLpdPLJxG2gaIbUEhSlCVgMhMo83es89YvUogBJGs0tOn7/zu449fvHjx8uXL+/v7ki5361tPrp49e3Zzc9NaI8+ef+YVYCBpgARIim3NG3NU5VZiSedNloTx5ubq5ubnkkoFIcxMKJWkh3UOELadLlPSRlqZAfgfyt3K39zBtu4AAAAASUVORK5CYII=;" vertex="1" parent="1">
          <mxGeometry x="314" y="148" width="32" height="32" as="geometry" />
        </mxCell>
        <mxCell id="dRI7kauGEd1azHOrCS9Q-9" value="" style="endArrow=classic;html=1;" edge="1" parent="1">
          <mxGeometry width="50" height="50" relative="1" as="geometry">
            <mxPoint x="282" y="200" as="sourcePoint" />
            <mxPoint x="312" y="175" as="targetPoint" />
          </mxGeometry>
        </mxCell>
        <mxCell id="dRI7kauGEd1azHOrCS9Q-10" value="Exemplar" style="text;html=1;resizable=0;autosize=1;align=center;verticalAlign=middle;points=[];fillColor=none;strokeColor=none;rounded=0;" vertex="1" parent="1">
          <mxGeometry x="328" y="143" width="70" height="20" as="geometry" />
        </mxCell>
        <mxCell id="dRI7kauGEd1azHOrCS9Q-11" value="&lt;font style=&quot;font-size: 8px&quot;&gt;a small subset of data1&lt;/font&gt;" style="text;html=1;resizable=0;autosize=1;align=center;verticalAlign=middle;points=[];fillColor=none;strokeColor=none;rounded=0;" vertex="1" parent="1">
          <mxGeometry x="293" y="176" width="100" height="20" as="geometry" />
        </mxCell>
      </root>
    </mxGraphModel>
  </diagram>
</mxfile>
